<?xml version="1.0" standalone="no"?>
<!DOCTYPE svg PUBLIC "-//W3C//DTD SVG 20010904//EN"
 "http://www.w3.org/TR/2001/REC-SVG-20010904/DTD/svg10.dtd">
<svg version="1.0" xmlns="http://www.w3.org/2000/svg"
 width="1314.000000pt" height="562.000000pt" viewBox="0 0 1314.000000 562.000000"
 preserveAspectRatio="xMidYMid meet">
<metadata>
Created by potrace 1.16, written by Peter Selinger 2001-2019
</metadata>
<g transform="translate(0.000000,562.000000) scale(0.100000,-0.100000)"
fill="#000000" stroke="none">
<path fill="#7c2d30" d="M2895 5511 c-135 -22 -290 -81 -342 -130 -13 -12 -23 -23 -23 -24 0
-1 78 -2 172 -2 193 0 254 -11 368 -67 76 -38 172 -130 212 -203 59 -111 91
-307 68 -420 -52 -252 -265 -600 -531 -867 -65 -65 -122 -118 -127 -118 -19 0
-198 123 -265 182 -122 108 -227 268 -279 424 -32 96 -32 264 -1 343 42 103
95 158 196 200 55 23 75 26 172 25 124 -1 219 -24 360 -88 l78 -36 -6 35 c-35
213 -328 440 -660 510 -39 9 -121 15 -190 15 -344 0 -624 -103 -838 -307 -313
-299 -405 -654 -269 -1038 39 -108 83 -198 157 -317 68 -111 199 -287 217
-294 21 -8 288 24 446 52 281 51 526 128 740 233 63 30 120 58 125 60 24 10
-25 -36 -100 -94 -191 -149 -492 -314 -848 -465 l-197 -84 52 -54 c147 -151
512 -465 708 -608 199 -146 253 -167 359 -140 121 31 193 82 480 344 464 423
742 789 900 1188 129 327 171 717 105 978 -101 402 -425 676 -884 750 -119 19
-290 27 -355 17z"/>
<path fill="#115c61" d="M197 4153 c-44 -50 -47 -236 -6 -437 82 -410 336 -907 696 -1361 112
-142 414 -443 522 -520 161 -115 182 -136 220 -210 36 -70 36 -70 36 -200 -1
-123 -3 -136 -37 -236 -68 -197 -175 -400 -350 -661 -43 -65 -78 -120 -78
-123 0 -3 249 -4 553 -3 l552 3 27 106 c72 288 100 573 96 984 l-3 300 -30 57
c-55 106 -161 213 -310 316 -39 26 -182 117 -320 201 -314 194 -459 294 -607
421 -316 272 -525 571 -667 955 -72 193 -135 319 -191 377 -49 51 -77 59 -103
31z"/>
<path fill="#115c61" d="M4751 4123 c-58 -60 -113 -167 -181 -348 -135 -362 -294 -612 -550
-865 -175 -173 -367 -316 -685 -510 -373 -227 -477 -299 -574 -398 -50 -52
-107 -137 -125 -190 -21 -58 -28 -306 -17 -549 16 -328 40 -517 97 -753 l27
-110 553 0 c305 0 554 2 554 5 0 3 -40 65 -88 138 -203 303 -311 520 -363 725
-30 119 -24 263 12 342 33 71 75 119 147 166 140 92 349 284 506 464 325 373
596 831 729 1235 115 347 127 695 24 695 -12 0 -41 -21 -66 -47z"/>




<path fill="#4b4b4d" d="M11945 2169 c-223 -31 -393 -139 -468 -296 -31 -65 -32 -73 -32 -193
0 -174 24 -233 142 -353 69 -69 187 -132 388 -207 77 -28 167 -65 201 -81 100
-47 150 -111 141 -179 -12 -92 -80 -133 -233 -138 -176 -7 -305 32 -506 152
l-108 64 0 -184 0 -184 73 -36 c95 -46 225 -89 334 -110 129 -25 343 -23 448
5 264 69 414 230 432 461 11 145 -34 273 -129 369 -94 95 -170 137 -425 237
-274 107 -323 141 -323 225 0 71 71 124 188 138 129 16 289 -17 505 -103 l107
-43 0 167 0 167 -82 31 c-229 87 -457 119 -653 91z"/>
<path fill="#4b4b4d" d="M5021 2133 c-7 -15 -70 -172 -141 -348 -71 -176 -221 -549 -334 -830
-113 -280 -206 -513 -206 -517 0 -5 101 -8 224 -8 l223 0 35 93 c20 50 48 127
64 169 l29 78 390 0 390 0 70 -170 70 -170 227 0 c126 0 228 2 228 5 0 5 -158
364 -677 1533 l-86 192 -247 0 -247 0 -12 -27z m358 -609 c104 -250 181 -439
181 -447 0 -4 -120 -7 -266 -7 -249 0 -266 1 -259 18 7 17 188 496 227 601 15
40 23 50 29 39 5 -9 44 -100 88 -204z"/>
<path fill="#4b4b4d" d="M6510 1295 l0 -865 635 0 635 0 0 155 0 155 -420 0 -420 0 0 210 0
210 395 0 395 0 0 155 0 155 -395 0 -395 0 0 185 0 185 413 2 412 3 0 155 0
155 -627 3 -628 2 0 -865z"/>
<path fill="#4b4b4d" d="M8120 1295 l0 -865 480 0 c538 0 579 4 705 66 158 77 251 219 262
399 13 196 -74 347 -249 435 -44 22 -87 40 -94 40 -26 0 -13 15 43 50 65 41
114 97 145 166 18 39 22 68 23 139 0 80 -3 97 -29 150 -36 73 -133 173 -201
207 -136 69 -222 78 -702 78 l-383 0 0 -865z m766 526 c120 -55 148 -200 55
-292 -49 -49 -91 -59 -253 -59 l-138 0 0 185 0 185 148 0 c122 0 154 -4 188
-19z m119 -698 c84 -45 123 -116 110 -201 -12 -83 -46 -125 -125 -157 -37 -15
-82 -19 -242 -23 l-198 -4 0 207 0 206 208 -3 c190 -3 210 -5 247 -25z"/>
<path fill="#4b4b4d" d="M9900 1295 l0 -865 635 0 635 0 0 155 0 155 -420 0 -420 0 0 210 0
210 395 0 395 0 0 155 0 155 -395 0 -395 0 0 185 0 185 413 2 412 3 0 155 0
155 -627 3 -628 2 0 -865z"/>
</g>
</svg>
